<svg width="24" height="24" viewBox="0 0 24 24" fill="none" xmlns="http://www.w3.org/2000/svg">
<path d="M10.1297 9.00027V15.7432C10.1375 16.2363 10.3388 16.7066 10.6903 17.0525C11.0417 17.3984 11.5151 17.5923 12.0082 17.5923C12.5013 17.5923 12.9747 17.3984 13.3261 17.0525C13.6776 16.7066 13.8789 16.2363 13.8867 15.7432L13.8928 6.90496C13.8979 6.48352 13.8193 6.06526 13.6616 5.67442C13.5039 5.28358 13.2701 4.92794 12.9739 4.62812C12.6777 4.32829 12.3249 4.09024 11.936 3.92777C11.5471 3.7653 11.1298 3.68164 10.7084 3.68164C10.2869 3.68164 9.86961 3.7653 9.48071 3.92777C9.09182 4.09024 8.73904 4.32829 8.44283 4.62812C8.14661 4.92794 7.91286 5.28358 7.75512 5.67442C7.59738 6.06526 7.51879 6.48352 7.52391 6.90496V15.8028C7.51532 16.3961 7.62476 16.9852 7.84588 17.5358C8.06699 18.0865 8.39537 18.5877 8.81191 19.0103C9.22844 19.4329 9.72484 19.7685 10.2722 19.9976C10.8196 20.2266 11.4071 20.3446 12.0005 20.3446C12.5939 20.3446 13.1813 20.2266 13.7287 19.9976C14.2761 19.7685 14.7725 19.4329 15.189 19.0103C15.6056 18.5877 15.9339 18.0865 16.1551 17.5358C16.3762 16.9852 16.4856 16.3961 16.477 15.8028V7.48809" stroke="black" stroke-width="1.5" stroke-miterlimit="10" stroke-linecap="round"/>
</svg>
