<svg width="40" height="40" viewBox="0 0 40 40" fill="none" xmlns="http://www.w3.org/2000/svg">
<rect width="40" height="40" rx="4" fill="#019D6B"/>
<path d="M27.7099 11.3641L10.2417 16.291C10.0948 16.3325 9.96396 16.4178 9.86679 16.5356C9.76962 16.6534 9.71071 16.798 9.69794 16.9501C9.68517 17.1023 9.71915 17.2547 9.79532 17.3871C9.8715 17.5194 9.98626 17.6253 10.1242 17.6907L18.1503 21.4925C18.3068 21.5666 18.4329 21.6927 18.507 21.8492L22.3088 29.8752C22.3742 30.0132 22.4801 30.128 22.6124 30.2041C22.7447 30.2803 22.8972 30.3143 23.0493 30.3015C23.2015 30.2888 23.3461 30.2299 23.4639 30.1327C23.5817 30.0355 23.667 29.9047 23.7084 29.7578L28.6354 12.2895C28.6716 12.1612 28.6729 12.0256 28.6392 11.8966C28.6056 11.7676 28.5381 11.6499 28.4439 11.5556C28.3496 11.4613 28.2319 11.3939 28.1029 11.3602C27.9739 11.3266 27.8383 11.3279 27.7099 11.3641Z" stroke="white" stroke-width="2" stroke-linecap="round" stroke-linejoin="round"/>
<path d="M18.3945 21.6059L22.6372 17.3633" stroke="white" stroke-width="2" stroke-linecap="round" stroke-linejoin="round"/>
</svg>
