<svg width="40" height="41" viewBox="0 0 40 41" fill="none" xmlns="http://www.w3.org/2000/svg">
<path d="M27.7099 11.8641L10.2417 16.791C10.0948 16.8325 9.96396 16.9178 9.86679 17.0356C9.76962 17.1534 9.71071 17.298 9.69794 17.4501C9.68517 17.6023 9.71915 17.7547 9.79532 17.8871C9.8715 18.0194 9.98626 18.1253 10.1242 18.1907L18.1503 21.9925C18.3068 22.0666 18.4329 22.1927 18.507 22.3492L22.3088 30.3752C22.3742 30.5132 22.4801 30.628 22.6124 30.7041C22.7447 30.7803 22.8972 30.8143 23.0493 30.8015C23.2015 30.7888 23.3461 30.7299 23.4639 30.6327C23.5817 30.5355 23.667 30.4047 23.7084 30.2578L28.6354 12.7895C28.6716 12.6612 28.6729 12.5256 28.6392 12.3966C28.6056 12.2676 28.5381 12.1499 28.4439 12.0556C28.3496 11.9613 28.2319 11.8939 28.1029 11.8602C27.9739 11.8266 27.8383 11.8279 27.7099 11.8641Z" stroke="black" stroke-width="2" stroke-linecap="round" stroke-linejoin="round"/>
<path d="M18.3945 22.1059L22.6372 17.8633" stroke="black" stroke-width="2" stroke-linecap="round" stroke-linejoin="round"/>
</svg>
